<?xml version="1.0" encoding="UTF-8" standalone="no"?>
<!DOCTYPE svg PUBLIC "-//W3C//DTD SVG 1.1//EN"
 "http://www.w3.org/Graphics/SVG/1.1/DTD/svg11.dtd">
<!-- Generated by graphviz version 15.1.0 (20260618.0150)
 -->
<!-- Title: LMS_CORE_ERD Pages: 1 -->
<svg width="6997pt" height="6216pt"
 viewBox="0.00 0.00 6997.00 6216.00" xmlns="http://www.w3.org/2000/svg" xmlns:xlink="http://www.w3.org/1999/xlink">
<g id="graph0" class="graph" transform="scale(4.16667 4.16667) rotate(0) translate(4 1487.8)">
<title>LMS_CORE_ERD</title>
<polygon fill="white" stroke="none" points="-4,4 -4,-1487.8 1675.35,-1487.8 1675.35,4 -4,4"/>
<text xml:space="preserve" text-anchor="middle" x="835.68" y="-1462.7" font-family="Segoe UI" font-size="18.00">LMS ERD (Simplified)</text>
<!-- USER -->
<g id="node1" class="node">
<title>USER</title>
<polygon fill="none" stroke="#000000" stroke-width="2" points="619,-796.81 557.32,-796.81 557.32,-760.09 619,-760.09 619,-796.81"/>
<text xml:space="preserve" text-anchor="middle" x="588.16" y="-775.1" font-family="Segoe UI" font-size="13.00" fill="#000000">USER</text>
</g>
<!-- us_id -->
<g id="node11" class="node">
<title>us_id</title>
<ellipse fill="none" stroke="#333333" cx="631.64" cy="-683.78" rx="27" ry="18"/>
<text xml:space="preserve" text-anchor="start" x="616.64" y="-682.4" font-family="Segoe UI" text-decoration="underline" font-size="10.00" fill="#000000">UserID</text>
</g>
<!-- USER&#45;&#45;us_id -->
<g id="edge1" class="edge">
<title>USER&#45;&#45;us_id</title>
<path fill="none" stroke="#000000" d="M596.96,-759.29C604.75,-742.33 616.03,-717.77 623.59,-701.31"/>
</g>
<!-- us_un -->
<g id="node12" class="node">
<title>us_un</title>
<ellipse fill="none" stroke="#333333" cx="614.6" cy="-596.39" rx="28.86" ry="18"/>
<text xml:space="preserve" text-anchor="middle" x="614.6" y="-594.02" font-family="Segoe UI" font-size="10.00" fill="#000000">Username</text>
</g>
<!-- USER&#45;&#45;us_un -->
<g id="edge2" class="edge">
<title>USER&#45;&#45;us_un</title>
<path fill="none" stroke="#000000" d="M589.54,-759.17C591.03,-739.99 593.73,-709.76 597.54,-683.78 601.09,-659.61 606.75,-631.99 610.57,-614.38"/>
</g>
<!-- us_em -->
<g id="node13" class="node">
<title>us_em</title>
<ellipse fill="none" stroke="#333333" cx="522.66" cy="-631.84" rx="27" ry="18"/>
<text xml:space="preserve" text-anchor="middle" x="522.66" y="-629.47" font-family="Segoe UI" font-size="10.00" fill="#000000">Email</text>
</g>
<!-- USER&#45;&#45;us_em -->
<g id="edge3" class="edge">
<title>USER&#45;&#45;us_em</title>
<path fill="none" stroke="#000000" d="M579.6,-759.29C566.77,-730.57 542.74,-676.8 530.41,-649.19"/>
</g>
<!-- us_fn -->
<g id="node14" class="node">
<title>us_fn</title>
<ellipse fill="none" stroke="#333333" cx="487.91" cy="-858.78" rx="27.15" ry="18"/>
<text xml:space="preserve" text-anchor="middle" x="487.91" y="-856.4" font-family="Segoe UI" font-size="10.00" fill="#000000">FullName</text>
</g>
<!-- USER&#45;&#45;us_fn -->
<g id="edge4" class="edge">
<title>USER&#45;&#45;us_fn</title>
<path fill="none" stroke="#000000" d="M564.15,-797.69C546.08,-812.17 521.72,-831.69 505.45,-844.72"/>
</g>
<!-- us_rl -->
<g id="node15" class="node">
<title>us_rl</title>
<ellipse fill="none" stroke="#333333" cx="604.04" cy="-870.62" rx="27" ry="18"/>
<text xml:space="preserve" text-anchor="middle" x="604.04" y="-868.25" font-family="Segoe UI" font-size="10.00" fill="#000000">Role</text>
</g>
<!-- USER&#45;&#45;us_rl -->
<g id="edge5" class="edge">
<title>USER&#45;&#45;us_rl</title>
<path fill="none" stroke="#000000" d="M591.45,-797.55C594.23,-813.69 598.18,-836.63 600.92,-852.49"/>
</g>
<!-- us_st -->
<g id="node16" class="node">
<title>us_st</title>
<ellipse fill="none" stroke="#333333" cx="515.35" cy="-703.9" rx="27" ry="18"/>
<text xml:space="preserve" text-anchor="middle" x="515.35" y="-701.53" font-family="Segoe UI" font-size="10.00" fill="#000000">Status</text>
</g>
<!-- USER&#45;&#45;us_st -->
<g id="edge6" class="edge">
<title>USER&#45;&#45;us_st</title>
<path fill="none" stroke="#000000" d="M569.41,-759.25C557.27,-746.83 541.69,-730.87 530.37,-719.28"/>
</g>
<!-- R_TEACHES -->
<g id="node54" class="node">
<title>R_TEACHES</title>
<polygon fill="#eeeeee" stroke="#000000" stroke-width="1.4" points="712.15,-935.29 667.15,-911.89 712.15,-888.49 757.15,-911.89 712.15,-935.29"/>
<text xml:space="preserve" text-anchor="middle" x="712.15" y="-908.94" font-family="Segoe UI" font-size="11.00" fill="#000000">TEACHES</text>
</g>
<!-- USER&#45;&#45;R_TEACHES -->
<g id="edge48" class="edge">
<title>USER&#45;&#45;R_TEACHES</title>
<path fill="none" stroke="#000000" stroke-width="1.5" d="M605.93,-797.57C630.43,-823.95 674.18,-871.03 697.14,-895.74"/>
<text xml:space="preserve" text-anchor="middle" x="648.74" y="-852.93" font-family="Segoe UI" font-size="13.00" fill="#000000">1</text>
</g>
<!-- R_ENROLLS -->
<g id="node58" class="node">
<title>R_ENROLLS</title>
<polygon fill="#eeeeee" stroke="#000000" stroke-width="1.4" points="735.46,-852.46 690.46,-829.06 735.46,-805.66 780.46,-829.06 735.46,-852.46"/>
<text xml:space="preserve" text-anchor="middle" x="735.46" y="-826.11" font-family="Segoe UI" font-size="11.00" fill="#000000">ENROLLS</text>
</g>
<!-- USER&#45;&#45;R_ENROLLS -->
<g id="edge56" class="edge">
<title>USER&#45;&#45;R_ENROLLS</title>
<path fill="none" stroke="#000000" stroke-width="1.5" d="M619.76,-789.31C645.97,-798.31 682.85,-810.99 707.88,-819.59"/>
<text xml:space="preserve" text-anchor="middle" x="658.26" y="-810.25" font-family="Segoe UI" font-size="13.00" fill="#000000">M</text>
</g>
<!-- R_SUBMITS -->
<g id="node62" class="node">
<title>R_SUBMITS</title>
<polygon fill="#eeeeee" stroke="#000000" stroke-width="1.4" points="374.13,-930.68 329.13,-907.28 374.13,-883.88 419.13,-907.28 374.13,-930.68"/>
<text xml:space="preserve" text-anchor="middle" x="374.13" y="-904.33" font-family="Segoe UI" font-size="11.00" fill="#000000">SUBMITS</text>
</g>
<!-- USER&#45;&#45;R_SUBMITS -->
<g id="edge64" class="edge">
<title>USER&#45;&#45;R_SUBMITS</title>
<path fill="none" stroke="#000000" stroke-width="1.5" d="M556.44,-792.76C530.82,-804.74 494.13,-822.84 463.69,-841.55 437.73,-857.51 409.7,-878.81 392.04,-892.78"/>
<text xml:space="preserve" text-anchor="middle" x="460.29" y="-847.22" font-family="Segoe UI" font-size="13.00" fill="#000000">1</text>
</g>
<!-- R_GRADES -->
<g id="node65" class="node">
<title>R_GRADES</title>
<polygon fill="#eeeeee" stroke="#000000" stroke-width="1.4" points="295.81,-742.43 250.81,-719.03 295.81,-695.63 340.81,-719.03 295.81,-742.43"/>
<text xml:space="preserve" text-anchor="middle" x="295.81" y="-716.08" font-family="Segoe UI" font-size="11.00" fill="#000000">GRADES</text>
</g>
<!-- USER&#45;&#45;R_GRADES -->
<g id="edge70" class="edge">
<title>USER&#45;&#45;R_GRADES</title>
<path fill="none" stroke="#000000" stroke-width="1.5" d="M556.6,-772.04C500.93,-760.72 385.85,-737.33 329.03,-725.79"/>
<text xml:space="preserve" text-anchor="middle" x="439.87" y="-754.65" font-family="Segoe UI" font-size="13.00" fill="#000000">1</text>
</g>
<!-- CATEGORY -->
<g id="node2" class="node">
<title>CATEGORY</title>
<polygon fill="none" stroke="#000000" stroke-width="2" points="1016.36,-1340.24 921.68,-1340.24 921.68,-1303.52 1016.36,-1303.52 1016.36,-1340.24"/>
<text xml:space="preserve" text-anchor="middle" x="969.02" y="-1318.53" font-family="Segoe UI" font-size="13.00" fill="#000000">CATEGORY</text>
</g>
<!-- ca_id -->
<g id="node17" class="node">
<title>ca_id</title>
<ellipse fill="none" stroke="#333333" cx="1013.31" cy="-1424.95" rx="31.84" ry="18"/>
<text xml:space="preserve" text-anchor="start" x="988.19" y="-1423.57" font-family="Segoe UI" text-decoration="underline" font-size="10.00" fill="#000000">CategoryID</text>
</g>
<!-- CATEGORY&#45;&#45;ca_id -->
<g id="edge7" class="edge">
<title>CATEGORY&#45;&#45;ca_id</title>
<path fill="none" stroke="#000000" d="M977.14,-1340.79C985.28,-1359.73 997.72,-1388.67 1005.68,-1407.2"/>
</g>
<!-- ca_nm -->
<g id="node18" class="node">
<title>ca_nm</title>
<ellipse fill="none" stroke="#333333" cx="903.6" cy="-1433.05" rx="41.22" ry="18"/>
<text xml:space="preserve" text-anchor="middle" x="903.6" y="-1430.67" font-family="Segoe UI" font-size="10.00" fill="#000000">CategoryName</text>
</g>
<!-- CATEGORY&#45;&#45;ca_nm -->
<g id="edge8" class="edge">
<title>CATEGORY&#45;&#45;ca_nm</title>
<path fill="none" stroke="#000000" d="M957.77,-1340.99C945.5,-1361.85 926,-1394.98 914.05,-1415.29"/>
</g>
<!-- ca_ds -->
<g id="node19" class="node">
<title>ca_ds</title>
<ellipse fill="none" stroke="#333333" cx="1090.35" cy="-1352.82" rx="32.27" ry="18"/>
<text xml:space="preserve" text-anchor="middle" x="1090.35" y="-1350.45" font-family="Segoe UI" font-size="10.00" fill="#000000">Description</text>
</g>
<!-- CATEGORY&#45;&#45;ca_ds -->
<g id="edge9" class="edge">
<title>CATEGORY&#45;&#45;ca_ds</title>
<path fill="none" stroke="#000000" d="M1017.32,-1334.2C1031.99,-1337.94 1047.67,-1341.94 1060.72,-1345.27"/>
</g>
<!-- R_CLASSIFIES -->
<g id="node55" class="node">
<title>R_CLASSIFIES</title>
<polygon fill="#eeeeee" stroke="#000000" stroke-width="1.4" points="918.28,-1198.13 873.28,-1174.73 918.28,-1151.33 963.28,-1174.73 918.28,-1198.13"/>
<text xml:space="preserve" text-anchor="middle" x="918.28" y="-1171.78" font-family="Segoe UI" font-size="11.00" fill="#000000">CLASSIFIES</text>
</g>
<!-- CATEGORY&#45;&#45;R_CLASSIFIES -->
<g id="edge50" class="edge">
<title>CATEGORY&#45;&#45;R_CLASSIFIES</title>
<path fill="none" stroke="#000000" stroke-width="1.5" d="M962.39,-1302.64C952.77,-1274.75 935.04,-1223.33 925.24,-1194.91"/>
<text xml:space="preserve" text-anchor="middle" x="940.51" y="-1254.62" font-family="Segoe UI" font-size="13.00" fill="#000000">1</text>
</g>
<!-- COURSE -->
<g id="node3" class="node">
<title>COURSE</title>
<polygon fill="none" stroke="#000000" stroke-width="2" points="900.99,-970.6 822.06,-970.6 822.06,-933.88 900.99,-933.88 900.99,-970.6"/>
<text xml:space="preserve" text-anchor="middle" x="861.53" y="-948.89" font-family="Segoe UI" font-size="13.00" fill="#000000">COURSE</text>
</g>
<!-- co_id -->
<g id="node20" class="node">
<title>co_id</title>
<ellipse fill="none" stroke="#333333" cx="981.94" cy="-955.31" rx="27" ry="18"/>
<text xml:space="preserve" text-anchor="start" x="961.31" y="-953.93" font-family="Segoe UI" text-decoration="underline" font-size="10.00" fill="#000000">CourseID</text>
</g>
<!-- COURSE&#45;&#45;co_id -->
<g id="edge10" class="edge">
<title>COURSE&#45;&#45;co_id</title>
<path fill="none" stroke="#000000" d="M901.96,-953.27C919.31,-953.71 939.13,-954.22 954.7,-954.61"/>
</g>
<!-- co_cd -->
<g id="node21" class="node">
<title>co_cd</title>
<ellipse fill="none" stroke="#333333" cx="892.76" cy="-1082.92" rx="34.4" ry="18"/>
<text xml:space="preserve" text-anchor="middle" x="892.76" y="-1080.54" font-family="Segoe UI" font-size="10.00" fill="#000000">CourseCode</text>
</g>
<!-- COURSE&#45;&#45;co_cd -->
<g id="edge11" class="edge">
<title>COURSE&#45;&#45;co_cd</title>
<path fill="none" stroke="#000000" d="M866.13,-971.52C872.14,-996.65 882.57,-1040.29 888.43,-1064.82"/>
</g>
<!-- co_ti -->
<g id="node22" class="node">
<title>co_ti</title>
<ellipse fill="none" stroke="#333333" cx="795.31" cy="-1087.77" rx="27" ry="18"/>
<text xml:space="preserve" text-anchor="middle" x="795.31" y="-1085.39" font-family="Segoe UI" font-size="10.00" fill="#000000">Title</text>
</g>
<!-- COURSE&#45;&#45;co_ti -->
<g id="edge12" class="edge">
<title>COURSE&#45;&#45;co_ti</title>
<path fill="none" stroke="#000000" d="M852.18,-971.37C839.28,-997.78 816.19,-1045.03 803.77,-1070.45"/>
</g>
<!-- co_lv -->
<g id="node23" class="node">
<title>co_lv</title>
<ellipse fill="none" stroke="#333333" cx="974.86" cy="-883.12" rx="27" ry="18"/>
<text xml:space="preserve" text-anchor="middle" x="974.86" y="-880.75" font-family="Segoe UI" font-size="10.00" fill="#000000">Level</text>
</g>
<!-- COURSE&#45;&#45;co_lv -->
<g id="edge13" class="edge">
<title>COURSE&#45;&#45;co_lv</title>
<path fill="none" stroke="#000000" d="M893.1,-932.98C912.74,-921 937.44,-905.94 954.52,-895.52"/>
</g>
<!-- co_st -->
<g id="node24" class="node">
<title>co_st</title>
<ellipse fill="none" stroke="#333333" cx="884.79" cy="-864.86" rx="27" ry="18"/>
<text xml:space="preserve" text-anchor="middle" x="884.79" y="-862.48" font-family="Segoe UI" font-size="10.00" fill="#000000">Status</text>
</g>
<!-- COURSE&#45;&#45;co_st -->
<g id="edge14" class="edge">
<title>COURSE&#45;&#45;co_st</title>
<path fill="none" stroke="#000000" d="M866.57,-933.28C870.56,-918.32 876.07,-897.59 879.99,-882.88"/>
</g>
<!-- co_pr -->
<g id="node25" class="node">
<title>co_pr</title>
<ellipse fill="none" stroke="#333333" cx="990.26" cy="-1027.38" rx="27" ry="18"/>
<text xml:space="preserve" text-anchor="middle" x="990.26" y="-1025" font-family="Segoe UI" font-size="10.00" fill="#000000">Price</text>
</g>
<!-- COURSE&#45;&#45;co_pr -->
<g id="edge15" class="edge">
<title>COURSE&#45;&#45;co_pr</title>
<path fill="none" stroke="#000000" d="M894.68,-971.59C918.37,-985.42 949.5,-1003.59 969.69,-1015.38"/>
</g>
<!-- R_CONTAINS -->
<g id="node56" class="node">
<title>R_CONTAINS</title>
<polygon fill="#eeeeee" stroke="#000000" stroke-width="1.4" points="1089.97,-902.59 1044.97,-879.19 1089.97,-855.79 1134.97,-879.19 1089.97,-902.59"/>
<text xml:space="preserve" text-anchor="middle" x="1089.97" y="-876.24" font-family="Segoe UI" font-size="11.00" fill="#000000">CONTAINS</text>
</g>
<!-- COURSE&#45;&#45;R_CONTAINS -->
<g id="edge52" class="edge">
<title>COURSE&#45;&#45;R_CONTAINS</title>
<path fill="none" stroke="#000000" stroke-width="1.5" d="M901.84,-939.34C947.57,-924.72 1020.99,-901.25 1061.26,-888.37"/>
<text xml:space="preserve" text-anchor="middle" x="980.22" y="-918.85" font-family="Segoe UI" font-size="13.00" fill="#000000">1</text>
</g>
<!-- R_HASASG -->
<g id="node59" class="node">
<title>R_HASASG</title>
<polygon fill="#eeeeee" stroke="#000000" stroke-width="1.4" points="687.29,-1055.78 642.29,-1032.38 687.29,-1008.98 732.29,-1032.38 687.29,-1055.78"/>
<text xml:space="preserve" text-anchor="middle" x="687.29" y="-1029.43" font-family="Segoe UI" font-size="11.00" fill="#000000">HAS</text>
</g>
<!-- COURSE&#45;&#45;R_HASASG -->
<g id="edge58" class="edge">
<title>COURSE&#45;&#45;R_HASASG</title>
<path fill="none" stroke="#000000" stroke-width="1.5" d="M821.11,-970.82C787.34,-986.36 740.26,-1008.02 711.89,-1021.07"/>
<text xml:space="preserve" text-anchor="middle" x="761.1" y="-1002.53" font-family="Segoe UI" font-size="13.00" fill="#000000">1</text>
</g>
<!-- MODULE -->
<g id="node4" class="node">
<title>MODULE</title>
<polygon fill="none" stroke="#000000" stroke-width="2" points="1255.16,-869.4 1170.98,-869.4 1170.98,-832.68 1255.16,-832.68 1255.16,-869.4"/>
<text xml:space="preserve" text-anchor="middle" x="1213.07" y="-847.69" font-family="Segoe UI" font-size="13.00" fill="#000000">MODULE</text>
</g>
<!-- mo_id -->
<g id="node26" class="node">
<title>mo_id</title>
<ellipse fill="none" stroke="#333333" cx="1288.34" cy="-986.35" rx="28.43" ry="18"/>
<text xml:space="preserve" text-anchor="start" x="1266.22" y="-984.97" font-family="Segoe UI" text-decoration="underline" font-size="10.00" fill="#000000">ModuleID</text>
</g>
<!-- MODULE&#45;&#45;mo_id -->
<g id="edge16" class="edge">
<title>MODULE&#45;&#45;mo_id</title>
<path fill="none" stroke="#000000" d="M1223.69,-870.14C1238.36,-896.51 1264.61,-943.68 1278.72,-969.06"/>
</g>
<!-- mo_ti -->
<g id="node27" class="node">
<title>mo_ti</title>
<ellipse fill="none" stroke="#333333" cx="1318.25" cy="-914.29" rx="27" ry="18"/>
<text xml:space="preserve" text-anchor="middle" x="1318.25" y="-911.92" font-family="Segoe UI" font-size="10.00" fill="#000000">Title</text>
</g>
<!-- MODULE&#45;&#45;mo_ti -->
<g id="edge17" class="edge">
<title>MODULE&#45;&#45;mo_ti</title>
<path fill="none" stroke="#000000" d="M1245.2,-870.36C1262.35,-880.68 1282.96,-893.07 1297.9,-902.05"/>
</g>
<!-- mo_or -->
<g id="node28" class="node">
<title>mo_or</title>
<ellipse fill="none" stroke="#333333" cx="1241.92" cy="-740.03" rx="32.27" ry="18"/>
<text xml:space="preserve" text-anchor="middle" x="1241.92" y="-737.66" font-family="Segoe UI" font-size="10.00" fill="#000000">OrderIndex</text>
</g>
<!-- MODULE&#45;&#45;mo_or -->
<g id="edge18" class="edge">
<title>MODULE&#45;&#45;mo_or</title>
<path fill="none" stroke="#000000" d="M1218.09,-831.71C1223.48,-810.96 1231.98,-778.27 1237.24,-758.04"/>
</g>
<!-- R_HASMAT -->
<g id="node57" class="node">
<title>R_HASMAT</title>
<polygon fill="#eeeeee" stroke="#000000" stroke-width="1.4" points="1367.17,-789.34 1322.17,-765.94 1367.17,-742.54 1412.17,-765.94 1367.17,-789.34"/>
<text xml:space="preserve" text-anchor="middle" x="1367.17" y="-762.99" font-family="Segoe UI" font-size="11.00" fill="#000000">HAS</text>
</g>
<!-- MODULE&#45;&#45;R_HASMAT -->
<g id="edge54" class="edge">
<title>MODULE&#45;&#45;R_HASMAT</title>
<path fill="none" stroke="#000000" stroke-width="1.5" d="M1248.03,-831.73C1277.69,-815.35 1319.36,-792.35 1344.74,-778.33"/>
<text xml:space="preserve" text-anchor="middle" x="1294.61" y="-809.8" font-family="Segoe UI" font-size="13.00" fill="#000000">1</text>
</g>
<!-- MATERIAL -->
<g id="node5" class="node">
<title>MATERIAL</title>
<polygon fill="none" stroke="#000000" stroke-width="2" points="1567.19,-748.61 1477.01,-748.61 1477.01,-711.89 1567.19,-711.89 1567.19,-748.61"/>
<text xml:space="preserve" text-anchor="middle" x="1522.1" y="-726.9" font-family="Segoe UI" font-size="13.00" fill="#000000">MATERIAL</text>
</g>
<!-- ma_id -->
<g id="node29" class="node">
<title>ma_id</title>
<ellipse fill="none" stroke="#333333" cx="1512.72" cy="-594.25" rx="29.71" ry="18"/>
<text xml:space="preserve" text-anchor="start" x="1489.47" y="-592.87" font-family="Segoe UI" text-decoration="underline" font-size="10.00" fill="#000000">MaterialID</text>
</g>
<!-- MATERIAL&#45;&#45;ma_id -->
<g id="edge19" class="edge">
<title>MATERIAL&#45;&#45;ma_id</title>
<path fill="none" stroke="#000000" d="M1520.77,-711.05C1518.97,-684.84 1515.75,-638.18 1513.98,-612.48"/>
</g>
<!-- ma_ti -->
<g id="node30" class="node">
<title>ma_ti</title>
<ellipse fill="none" stroke="#333333" cx="1598.98" cy="-836.12" rx="27" ry="18"/>
<text xml:space="preserve" text-anchor="middle" x="1598.98" y="-833.74" font-family="Segoe UI" font-size="10.00" fill="#000000">Title</text>
</g>
<!-- MATERIAL&#45;&#45;ma_ti -->
<g id="edge20" class="edge">
<title>MATERIAL&#45;&#45;ma_ti</title>
<path fill="none" stroke="#000000" d="M1535.84,-749.18C1550.44,-769.28 1573.28,-800.73 1587.12,-819.79"/>
</g>
<!-- ma_ty -->
<g id="node31" class="node">
<title>ma_ty</title>
<ellipse fill="none" stroke="#333333" cx="1614.2" cy="-657.09" rx="35.68" ry="18"/>
<text xml:space="preserve" text-anchor="middle" x="1614.2" y="-654.72" font-family="Segoe UI" font-size="10.00" fill="#000000">MaterialType</text>
</g>
<!-- MATERIAL&#45;&#45;ma_ty -->
<g id="edge21" class="edge">
<title>MATERIAL&#45;&#45;ma_ty</title>
<path fill="none" stroke="#000000" d="M1546.3,-711.03C1561.43,-699.01 1580.67,-683.73 1594.8,-672.5"/>
</g>
<!-- ma_ur -->
<g id="node32" class="node">
<title>ma_ur</title>
<ellipse fill="none" stroke="#333333" cx="1637.38" cy="-757.11" rx="33.97" ry="18"/>
<text xml:space="preserve" text-anchor="middle" x="1637.38" y="-754.74" font-family="Segoe UI" font-size="10.00" fill="#000000">ContentURL</text>
</g>
<!-- MATERIAL&#45;&#45;ma_ur -->
<g id="edge22" class="edge">
<title>MATERIAL&#45;&#45;ma_ur</title>
<path fill="none" stroke="#000000" d="M1567.99,-740.95C1580.68,-743.9 1594.15,-747.04 1605.82,-749.76"/>
</g>
<!-- ASSIGNMENT -->
<g id="node6" class="node">
<title>ASSIGNMENT</title>
<polygon fill="none" stroke="#000000" stroke-width="2" points="606.25,-1038.49 495.07,-1038.49 495.07,-1001.77 606.25,-1001.77 606.25,-1038.49"/>
<text xml:space="preserve" text-anchor="middle" x="550.66" y="-1016.78" font-family="Segoe UI" font-size="13.00" fill="#000000">ASSIGNMENT</text>
</g>
<!-- as_id -->
<g id="node33" class="node">
<title>as_id</title>
<ellipse fill="none" stroke="#333333" cx="444.3" cy="-1128.1" rx="39.09" ry="18"/>
<text xml:space="preserve" text-anchor="start" x="412.8" y="-1126.73" font-family="Segoe UI" text-decoration="underline" font-size="10.00" fill="#000000">AssignmentID</text>
</g>
<!-- ASSIGNMENT&#45;&#45;as_id -->
<g id="edge23" class="edge">
<title>ASSIGNMENT&#45;&#45;as_id</title>
<path fill="none" stroke="#000000" d="M531.65,-1039.43C511.45,-1059.94 479.85,-1092.01 460.71,-1111.44"/>
</g>
<!-- as_ti -->
<g id="node34" class="node">
<title>as_ti</title>
<ellipse fill="none" stroke="#333333" cx="432.07" cy="-1014.44" rx="27" ry="18"/>
<text xml:space="preserve" text-anchor="middle" x="432.07" y="-1012.07" font-family="Segoe UI" font-size="10.00" fill="#000000">Title</text>
</g>
<!-- ASSIGNMENT&#45;&#45;as_ti -->
<g id="edge24" class="edge">
<title>ASSIGNMENT&#45;&#45;as_ti</title>
<path fill="none" stroke="#000000" d="M494.15,-1017.42C481.97,-1016.84 469.65,-1016.24 459.22,-1015.74"/>
</g>
<!-- as_ty -->
<g id="node35" class="node">
<title>as_ty</title>
<ellipse fill="none" stroke="#333333" cx="484.42" cy="-1200.17" rx="27" ry="18"/>
<text xml:space="preserve" text-anchor="middle" x="484.42" y="-1197.8" font-family="Segoe UI" font-size="10.00" fill="#000000">AType</text>
</g>
<!-- ASSIGNMENT&#45;&#45;as_ty -->
<g id="edge25" class="edge">
<title>ASSIGNMENT&#45;&#45;as_ty</title>
<path fill="none" stroke="#000000" d="M543.58,-1039.4C530.66,-1074.5 503.47,-1148.39 490.97,-1182.38"/>
</g>
<!-- as_mx -->
<g id="node36" class="node">
<title>as_mx</title>
<ellipse fill="none" stroke="#333333" cx="590.04" cy="-1176.53" rx="28" ry="18"/>
<text xml:space="preserve" text-anchor="middle" x="590.04" y="-1174.15" font-family="Segoe UI" font-size="10.00" fill="#000000">MaxScore</text>
</g>
<!-- ASSIGNMENT&#45;&#45;as_mx -->
<g id="edge26" class="edge">
<title>ASSIGNMENT&#45;&#45;as_mx</title>
<path fill="none" stroke="#000000" d="M544.19,-1039.21C539.38,-1055.98 534.34,-1080.99 538.65,-1102.55 543.3,-1125.86 560.55,-1147.57 573.79,-1161.36"/>
</g>
<!-- as_dl -->
<g id="node37" class="node">
<title>as_dl</title>
<ellipse fill="none" stroke="#333333" cx="522.16" cy="-942.63" rx="27" ry="18"/>
<text xml:space="preserve" text-anchor="middle" x="522.16" y="-940.26" font-family="Segoe UI" font-size="10.00" fill="#000000">Deadline</text>
</g>
<!-- ASSIGNMENT&#45;&#45;as_dl -->
<g id="edge27" class="edge">
<title>ASSIGNMENT&#45;&#45;as_dl</title>
<path fill="none" stroke="#000000" d="M543.62,-1000.97C539.07,-988.6 533.19,-972.62 528.74,-960.51"/>
</g>
<!-- as_lp -->
<g id="node38" class="node">
<title>as_lp</title>
<ellipse fill="none" stroke="#333333" cx="573.83" cy="-1102.55" rx="28" ry="18"/>
<text xml:space="preserve" text-anchor="middle" x="573.83" y="-1100.17" font-family="Segoe UI" font-size="10.00" fill="#000000">LatePolicy</text>
</g>
<!-- ASSIGNMENT&#45;&#45;as_lp -->
<g id="edge28" class="edge">
<title>ASSIGNMENT&#45;&#45;as_lp</title>
<path fill="none" stroke="#000000" d="M556.04,-1039.25C559.86,-1052.85 564.96,-1071 568.72,-1084.38"/>
</g>
<!-- R_HASQ -->
<g id="node60" class="node">
<title>R_HASQ</title>
<polygon fill="#eeeeee" stroke="#000000" stroke-width="1.4" points="421.94,-804.7 376.94,-781.3 421.94,-757.9 466.94,-781.3 421.94,-804.7"/>
<text xml:space="preserve" text-anchor="middle" x="421.94" y="-778.35" font-family="Segoe UI" font-size="11.00" fill="#000000">HAS</text>
</g>
<!-- ASSIGNMENT&#45;&#45;R_HASQ -->
<g id="edge60" class="edge">
<title>ASSIGNMENT&#45;&#45;R_HASQ</title>
<path fill="none" stroke="#000000" stroke-width="1.5" d="M532.12,-1000.83C521.56,-989.38 508.41,-974.31 498.06,-959.85 461.46,-908.76 437.79,-837.35 427.63,-802.34"/>
<text xml:space="preserve" text-anchor="middle" x="464.01" y="-913.04" font-family="Segoe UI" font-size="13.00" fill="#000000">1</text>
</g>
<!-- R_RECEIVES -->
<g id="node63" class="node">
<title>R_RECEIVES</title>
<polygon fill="#eeeeee" stroke="#000000" stroke-width="1.4" points="324.04,-1104.4 279.04,-1081 324.04,-1057.6 369.04,-1081 324.04,-1104.4"/>
<text xml:space="preserve" text-anchor="middle" x="324.04" y="-1078.05" font-family="Segoe UI" font-size="11.00" fill="#000000">RECEIVES</text>
</g>
<!-- ASSIGNMENT&#45;&#45;R_RECEIVES -->
<g id="edge66" class="edge">
<title>ASSIGNMENT&#45;&#45;R_RECEIVES</title>
<path fill="none" stroke="#000000" stroke-width="1.5" d="M494.35,-1035.25C450.18,-1047.12 390.37,-1063.19 354.65,-1072.78"/>
<text xml:space="preserve" text-anchor="middle" x="417.96" y="-1060.52" font-family="Segoe UI" font-size="13.00" fill="#000000">1</text>
</g>
<!-- QUESTION -->
<g id="node7" class="node">
<title>QUESTION</title>
<polygon fill="none" stroke="#000000" stroke-width="2" points="459.55,-519.78 365.62,-519.78 365.62,-483.06 459.55,-483.06 459.55,-519.78"/>
<text xml:space="preserve" text-anchor="middle" x="412.59" y="-498.07" font-family="Segoe UI" font-size="13.00" fill="#000000">QUESTION</text>
</g>
<!-- qu_id -->
<g id="node39" class="node">
<title>qu_id</title>
<ellipse fill="none" stroke="#333333" cx="505.25" cy="-408.8" rx="32.27" ry="18"/>
<text xml:space="preserve" text-anchor="start" x="479.75" y="-407.43" font-family="Segoe UI" text-decoration="underline" font-size="10.00" fill="#000000">QuestionID</text>
</g>
<!-- QUESTION&#45;&#45;qu_id -->
<g id="edge29" class="edge">
<title>QUESTION&#45;&#45;qu_id</title>
<path fill="none" stroke="#000000" d="M431.79,-482.23C448.75,-465.28 473.21,-440.83 489.16,-424.88"/>
</g>
<!-- qu_tx -->
<g id="node40" class="node">
<title>qu_tx</title>
<ellipse fill="none" stroke="#333333" cx="384.29" cy="-416.3" rx="36.96" ry="18"/>
<text xml:space="preserve" text-anchor="middle" x="384.29" y="-413.92" font-family="Segoe UI" font-size="10.00" fill="#000000">QuestionText</text>
</g>
<!-- QUESTION&#45;&#45;qu_tx -->
<g id="edge30" class="edge">
<title>QUESTION&#45;&#45;qu_tx</title>
<path fill="none" stroke="#000000" d="M406.16,-482.11C401.4,-467.78 394.96,-448.39 390.3,-434.37"/>
</g>
<!-- qu_pt -->
<g id="node41" class="node">
<title>qu_pt</title>
<ellipse fill="none" stroke="#333333" cx="283.17" cy="-482.27" rx="27" ry="18"/>
<text xml:space="preserve" text-anchor="middle" x="283.17" y="-479.9" font-family="Segoe UI" font-size="10.00" fill="#000000">Points</text>
</g>
<!-- QUESTION&#45;&#45;qu_pt -->
<g id="edge31" class="edge">
<title>QUESTION&#45;&#45;qu_pt</title>
<path fill="none" stroke="#000000" d="M364.76,-494.35C346.19,-491.6 325.61,-488.55 309.77,-486.21"/>
</g>
<!-- R_HASOPT -->
<g id="node61" class="node">
<title>R_HASOPT</title>
<polygon fill="#eeeeee" stroke="#000000" stroke-width="1.4" points="392.27,-319.65 347.27,-296.25 392.27,-272.85 437.27,-296.25 392.27,-319.65"/>
<text xml:space="preserve" text-anchor="middle" x="392.27" y="-293.3" font-family="Segoe UI" font-size="11.00" fill="#000000">HAS</text>
</g>
<!-- QUESTION&#45;&#45;R_HASOPT -->
<g id="edge62" class="edge">
<title>QUESTION&#45;&#45;R_HASOPT</title>
<path fill="none" stroke="#000000" stroke-width="1.5" d="M419.07,-482.34C424.22,-465.21 430.38,-439.3 429.16,-416.3 427.2,-379.28 411.57,-338.49 401.3,-315.26"/>
<text xml:space="preserve" text-anchor="middle" x="423.52" y="-401.75" font-family="Segoe UI" font-size="13.00" fill="#000000">1</text>
</g>
<!-- QOPTION -->
<g id="node8" class="node">
<title>QOPTION</title>
<polygon fill="none" stroke="#000000" stroke-width="2" points="436.21,-150.11 289.78,-150.11 289.78,-113.39 436.21,-113.39 436.21,-150.11"/>
<text xml:space="preserve" text-anchor="middle" x="363" y="-128.4" font-family="Segoe UI" font-size="13.00" fill="#000000">QUESTION_OPTION</text>
</g>
<!-- op_id -->
<g id="node42" class="node">
<title>op_id</title>
<ellipse fill="none" stroke="#333333" cx="448.11" cy="-37.87" rx="27" ry="18"/>
<text xml:space="preserve" text-anchor="start" x="427.48" y="-36.5" font-family="Segoe UI" text-decoration="underline" font-size="10.00" fill="#000000">OptionID</text>
</g>
<!-- QOPTION&#45;&#45;op_id -->
<g id="edge32" class="edge">
<title>QOPTION&#45;&#45;op_id</title>
<path fill="none" stroke="#000000" d="M380.22,-112.75C396.06,-95.29 419.25,-69.71 434.01,-53.43"/>
</g>
<!-- op_tx -->
<g id="node43" class="node">
<title>op_tx</title>
<ellipse fill="none" stroke="#333333" cx="332.07" cy="-18" rx="31.41" ry="18"/>
<text xml:space="preserve" text-anchor="middle" x="332.07" y="-15.62" font-family="Segoe UI" font-size="10.00" fill="#000000">OptionText</text>
</g>
<!-- QOPTION&#45;&#45;op_tx -->
<g id="edge33" class="edge">
<title>QOPTION&#45;&#45;op_tx</title>
<path fill="none" stroke="#000000" d="M357.75,-112.46C351.96,-91.16 342.71,-57.13 337.03,-36.26"/>
</g>
<!-- op_ic -->
<g id="node44" class="node">
<title>op_ic</title>
<ellipse fill="none" stroke="#333333" cx="226.38" cy="-83.07" rx="27" ry="18"/>
<text xml:space="preserve" text-anchor="middle" x="226.38" y="-80.69" font-family="Segoe UI" font-size="10.00" fill="#000000">IsCorrect</text>
</g>
<!-- QOPTION&#45;&#45;op_ic -->
<g id="edge34" class="edge">
<title>QOPTION&#45;&#45;op_ic</title>
<path fill="none" stroke="#000000" d="M309,-112.51C288.72,-105.28 266.67,-97.42 250.45,-91.65"/>
</g>
<!-- SUBMISSION -->
<g id="node9" class="node">
<title>SUBMISSION</title>
<polygon fill="none" stroke="#000000" stroke-width="2" points="242.94,-1044.32 135.51,-1044.32 135.51,-1007.6 242.94,-1007.6 242.94,-1044.32"/>
<text xml:space="preserve" text-anchor="middle" x="189.23" y="-1022.61" font-family="Segoe UI" font-size="13.00" fill="#000000">SUBMISSION</text>
</g>
<!-- su_id -->
<g id="node45" class="node">
<title>su_id</title>
<ellipse fill="none" stroke="#333333" cx="94.3" cy="-1121.03" rx="37.81" ry="18"/>
<text xml:space="preserve" text-anchor="start" x="63.92" y="-1119.65" font-family="Segoe UI" text-decoration="underline" font-size="10.00" fill="#000000">SubmissionID</text>
</g>
<!-- SUBMISSION&#45;&#45;su_id -->
<g id="edge35" class="edge">
<title>SUBMISSION&#45;&#45;su_id</title>
<path fill="none" stroke="#000000" d="M170.02,-1045.2C152.57,-1062.67 127.12,-1088.16 110.63,-1104.67"/>
</g>
<!-- su_at -->
<g id="node46" class="node">
<title>su_at</title>
<ellipse fill="none" stroke="#333333" cx="172.83" cy="-1193.53" rx="35.68" ry="18"/>
<text xml:space="preserve" text-anchor="middle" x="172.83" y="-1191.16" font-family="Segoe UI" font-size="10.00" fill="#000000">SubmittedAt</text>
</g>
<!-- SUBMISSION&#45;&#45;su_at -->
<g id="edge36" class="edge">
<title>SUBMISSION&#45;&#45;su_at</title>
<path fill="none" stroke="#000000" d="M187.34,-1045.18C184.16,-1077.76 177.73,-1143.4 174.61,-1175.3"/>
</g>
<!-- su_la -->
<g id="node47" class="node">
<title>su_la</title>
<ellipse fill="none" stroke="#333333" cx="274.01" cy="-1198.39" rx="27" ry="18"/>
<text xml:space="preserve" text-anchor="middle" x="274.01" y="-1196.01" font-family="Segoe UI" font-size="10.00" fill="#000000">IsLate</text>
</g>
<!-- SUBMISSION&#45;&#45;su_la -->
<g id="edge37" class="edge">
<title>SUBMISSION&#45;&#45;su_la</title>
<path fill="none" stroke="#000000" d="M198.62,-1045.07C215.22,-1078.83 249.49,-1148.51 265.46,-1181"/>
</g>
<!-- su_st -->
<g id="node48" class="node">
<title>su_st</title>
<ellipse fill="none" stroke="#333333" cx="46.89" cy="-1048.4" rx="27" ry="18"/>
<text xml:space="preserve" text-anchor="middle" x="46.89" y="-1046.02" font-family="Segoe UI" font-size="10.00" fill="#000000">Status</text>
</g>
<!-- SUBMISSION&#45;&#45;su_st -->
<g id="edge38" class="edge">
<title>SUBMISSION&#45;&#45;su_st</title>
<path fill="none" stroke="#000000" d="M134.6,-1034.57C113.59,-1037.88 90.54,-1041.52 73.35,-1044.23"/>
</g>
<!-- su_tr -->
<g id="node49" class="node">
<title>su_tr</title>
<ellipse fill="none" stroke="#333333" cx="72.47" cy="-975.6" rx="27" ry="18"/>
<text xml:space="preserve" text-anchor="middle" x="72.47" y="-973.22" font-family="Segoe UI" font-size="10.00" fill="#000000">Attempt</text>
</g>
<!-- SUBMISSION&#45;&#45;su_tr -->
<g id="edge39" class="edge">
<title>SUBMISSION&#45;&#45;su_tr</title>
<path fill="none" stroke="#000000" d="M144.42,-1006.63C127.7,-999.42 109.41,-991.53 95.45,-985.51"/>
</g>
<!-- R_EVAL -->
<g id="node64" class="node">
<title>R_EVAL</title>
<polygon fill="#eeeeee" stroke="#000000" stroke-width="1.4" points="57.87,-921.53 0,-898.13 57.87,-874.73 115.74,-898.13 57.87,-921.53"/>
<text xml:space="preserve" text-anchor="middle" x="57.87" y="-895.18" font-family="Segoe UI" font-size="11.00" fill="#000000">EVALUATED_AS</text>
</g>
<!-- SUBMISSION&#45;&#45;R_EVAL -->
<g id="edge68" class="edge">
<title>SUBMISSION&#45;&#45;R_EVAL</title>
<path fill="none" stroke="#000000" stroke-width="1.5" d="M169.56,-1006.82C143.94,-981.89 99.54,-938.68 75.15,-914.95"/>
<text xml:space="preserve" text-anchor="middle" x="118.52" y="-966.08" font-family="Segoe UI" font-size="13.00" fill="#000000">1</text>
</g>
<!-- GRADE -->
<g id="node10" class="node">
<title>GRADE</title>
<polygon fill="none" stroke="#000000" stroke-width="2" points="195.32,-765.51 123.14,-765.51 123.14,-728.79 195.32,-728.79 195.32,-765.51"/>
<text xml:space="preserve" text-anchor="middle" x="159.23" y="-743.8" font-family="Segoe UI" font-size="13.00" fill="#000000">GRADE</text>
</g>
<!-- gr_id -->
<g id="node50" class="node">
<title>gr_id</title>
<ellipse fill="none" stroke="#333333" cx="38.17" cy="-733.95" rx="27" ry="18"/>
<text xml:space="preserve" text-anchor="start" x="19.8" y="-732.58" font-family="Segoe UI" text-decoration="underline" font-size="10.00" fill="#000000">GradeID</text>
</g>
<!-- GRADE&#45;&#45;gr_id -->
<g id="edge40" class="edge">
<title>GRADE&#45;&#45;gr_id</title>
<path fill="none" stroke="#000000" d="M122.25,-743.12C103.76,-741.1 81.78,-738.71 64.94,-736.87"/>
</g>
<!-- gr_sc -->
<g id="node51" class="node">
<title>gr_sc</title>
<ellipse fill="none" stroke="#333333" cx="45.59" cy="-805.99" rx="27" ry="18"/>
<text xml:space="preserve" text-anchor="middle" x="45.59" y="-803.61" font-family="Segoe UI" font-size="10.00" fill="#000000">Score</text>
</g>
<!-- GRADE&#45;&#45;gr_sc -->
<g id="edge41" class="edge">
<title>GRADE&#45;&#45;gr_sc</title>
<path fill="none" stroke="#000000" d="M122.33,-766.25C104.06,-775.72 82.63,-786.81 67.07,-794.87"/>
</g>
<!-- gr_fb -->
<g id="node52" class="node">
<title>gr_fb</title>
<ellipse fill="none" stroke="#333333" cx="79.16" cy="-661.91" rx="27.58" ry="18"/>
<text xml:space="preserve" text-anchor="middle" x="79.16" y="-659.54" font-family="Segoe UI" font-size="10.00" fill="#000000">Feedback</text>
</g>
<!-- GRADE&#45;&#45;gr_fb -->
<g id="edge42" class="edge">
<title>GRADE&#45;&#45;gr_fb</title>
<path fill="none" stroke="#000000" d="M141.06,-727.81C126.76,-712.58 107.08,-691.64 93.78,-677.48"/>
</g>
<!-- gr_at -->
<g id="node53" class="node">
<title>gr_at</title>
<ellipse fill="none" stroke="#333333" cx="170.81" cy="-616.74" rx="28" ry="18"/>
<text xml:space="preserve" text-anchor="middle" x="170.81" y="-614.37" font-family="Segoe UI" font-size="10.00" fill="#000000">GradedAt</text>
</g>
<!-- GRADE&#45;&#45;gr_at -->
<g id="edge43" class="edge">
<title>GRADE&#45;&#45;gr_at</title>
<path fill="none" stroke="#000000" d="M160.94,-727.91C163.16,-702.83 167.03,-659.29 169.2,-634.8"/>
</g>
<!-- R_TEACHES&#45;&#45;COURSE -->
<g id="edge49" class="edge">
<title>R_TEACHES&#45;&#45;COURSE</title>
<path fill="none" stroke="#000000" stroke-width="1.5" d="M742.74,-920.15C765.44,-926.29 796.62,-934.71 821.33,-941.38"/>
<text xml:space="preserve" text-anchor="middle" x="776.41" y="-936.21" font-family="Segoe UI" font-size="13.00" fill="#000000">N</text>
</g>
<!-- R_CLASSIFIES&#45;&#45;COURSE -->
<g id="edge51" class="edge">
<title>R_CLASSIFIES&#45;&#45;COURSE</title>
<path fill="none" stroke="#000000" stroke-width="1.5" d="M925.93,-1154.69C932.06,-1136.11 939.02,-1107.68 934.86,-1082.92 927.49,-1039.05 897.25,-995.48 877.97,-971.38"/>
<text xml:space="preserve" text-anchor="middle" x="922.04" y="-1059.52" font-family="Segoe UI" font-size="13.00" fill="#000000">N</text>
</g>
<!-- R_CONTAINS&#45;&#45;MODULE -->
<g id="edge53" class="edge">
<title>R_CONTAINS&#45;&#45;MODULE</title>
<path fill="none" stroke="#000000" stroke-width="1.5" d="M1121.99,-871.87C1136.67,-868.51 1154.28,-864.49 1170.08,-860.87"/>
<text xml:space="preserve" text-anchor="middle" x="1140.74" y="-872.12" font-family="Segoe UI" font-size="13.00" fill="#000000">N</text>
</g>
<!-- R_HASMAT&#45;&#45;MATERIAL -->
<g id="edge55" class="edge">
<title>R_HASMAT&#45;&#45;MATERIAL</title>
<path fill="none" stroke="#000000" stroke-width="1.5" d="M1399.27,-758.55C1421.52,-753.42 1451.47,-746.52 1476.23,-740.82"/>
<text xml:space="preserve" text-anchor="middle" x="1431.93" y="-755.55" font-family="Segoe UI" font-size="13.00" fill="#000000">N</text>
</g>
<!-- R_ENROLLS&#45;&#45;COURSE -->
<g id="edge57" class="edge">
<title>R_ENROLLS&#45;&#45;COURSE</title>
<path fill="none" stroke="#000000" stroke-width="1.5" d="M751.43,-844.66C774.48,-867.19 817.06,-908.79 841.97,-933.13"/>
<text xml:space="preserve" text-anchor="middle" x="791.13" y="-893.87" font-family="Segoe UI" font-size="13.00" fill="#000000">N</text>
</g>
<!-- en_id -->
<g id="node66" class="node">
<title>en_id</title>
<ellipse fill="none" stroke="#333333" cx="847.8" cy="-600.83" rx="45" ry="23.4"/>
<text xml:space="preserve" text-anchor="start" x="818.55" y="-599.46" font-family="Segoe UI" text-decoration="underline" font-size="10.00" fill="#000000">EnrollmentID</text>
</g>
<!-- R_ENROLLS&#45;&#45;en_id -->
<g id="edge44" class="edge">
<title>R_ENROLLS&#45;&#45;en_id</title>
<path fill="none" stroke="#000000" d="M744.85,-810C765.41,-768.22 814.38,-668.73 836.55,-623.68"/>
</g>
<!-- en_dt -->
<g id="node67" class="node">
<title>en_dt</title>
<ellipse fill="none" stroke="#333333" cx="861.59" cy="-780.78" rx="45" ry="23.4"/>
<text xml:space="preserve" text-anchor="middle" x="861.59" y="-778.4" font-family="Segoe UI" font-size="10.00" fill="#000000">EnrollDate</text>
</g>
<!-- R_ENROLLS&#45;&#45;en_dt -->
<g id="edge45" class="edge">
<title>R_ENROLLS&#45;&#45;en_dt</title>
<path fill="none" stroke="#000000" d="M762.21,-818.82C780.43,-811.85 804.79,-802.52 824.83,-794.85"/>
</g>
<!-- en_pg -->
<g id="node68" class="node">
<title>en_pg</title>
<ellipse fill="none" stroke="#333333" cx="739.76" cy="-683.66" rx="45" ry="23.4"/>
<text xml:space="preserve" text-anchor="middle" x="739.76" y="-681.29" font-family="Segoe UI" font-size="10.00" fill="#000000">ProgressPercent</text>
</g>
<!-- R_ENROLLS&#45;&#45;en_pg -->
<g id="edge46" class="edge">
<title>R_ENROLLS&#45;&#45;en_pg</title>
<path fill="none" stroke="#000000" d="M736.16,-805.38C736.96,-778.34 738.26,-734.37 739.06,-707.34"/>
</g>
<!-- en_st -->
<g id="node69" class="node">
<title>en_st</title>
<ellipse fill="none" stroke="#333333" cx="888.12" cy="-697.31" rx="45" ry="23.4"/>
<text xml:space="preserve" text-anchor="middle" x="888.12" y="-694.94" font-family="Segoe UI" font-size="10.00" fill="#000000">EnrollmentStatus</text>
</g>
<!-- R_ENROLLS&#45;&#45;en_st -->
<g id="edge47" class="edge">
<title>R_ENROLLS&#45;&#45;en_st</title>
<path fill="none" stroke="#000000" d="M752.68,-814.21C780.05,-790.59 833.54,-744.41 864.48,-717.71"/>
</g>
<!-- R_HASASG&#45;&#45;ASSIGNMENT -->
<g id="edge59" class="edge">
<title>R_HASASG&#45;&#45;ASSIGNMENT</title>
<path fill="none" stroke="#000000" stroke-width="1.5" d="M647.77,-1028.84C635.09,-1027.7 620.77,-1026.42 607.12,-1025.19"/>
<text xml:space="preserve" text-anchor="middle" x="622.93" y="-1032.7" font-family="Segoe UI" font-size="13.00" fill="#000000">N</text>
</g>
<!-- R_HASQ&#45;&#45;QUESTION -->
<g id="edge61" class="edge">
<title>R_HASQ&#45;&#45;QUESTION</title>
<path fill="none" stroke="#000000" stroke-width="1.5" d="M421.15,-757.92C419.35,-703.79 414.9,-570.69 413.23,-520.76"/>
<text xml:space="preserve" text-anchor="middle" x="412.27" y="-643.42" font-family="Segoe UI" font-size="13.00" fill="#000000">N</text>
</g>
<!-- R_HASOPT&#45;&#45;QOPTION -->
<g id="edge63" class="edge">
<title>R_HASOPT&#45;&#45;QOPTION</title>
<path fill="none" stroke="#000000" stroke-width="1.5" d="M388.38,-274.4C382.6,-241.89 371.82,-181.32 366.36,-150.62"/>
<text xml:space="preserve" text-anchor="middle" x="372.37" y="-217.48" font-family="Segoe UI" font-size="13.00" fill="#000000">N</text>
</g>
<!-- R_SUBMITS&#45;&#45;SUBMISSION -->
<g id="edge65" class="edge">
<title>R_SUBMITS&#45;&#45;SUBMISSION</title>
<path fill="none" stroke="#000000" stroke-width="1.5" d="M353.64,-920.44C321.01,-941.38 257.09,-982.4 219.28,-1006.67"/>
<text xml:space="preserve" text-anchor="middle" x="283.53" y="-967.96" font-family="Segoe UI" font-size="13.00" fill="#000000">N</text>
</g>
<!-- R_RECEIVES&#45;&#45;SUBMISSION -->
<g id="edge67" class="edge">
<title>R_RECEIVES&#45;&#45;SUBMISSION</title>
<path fill="none" stroke="#000000" stroke-width="1.5" d="M298.05,-1070.39C280.6,-1063.27 257.11,-1053.68 236.43,-1045.23"/>
<text xml:space="preserve" text-anchor="middle" x="263.58" y="-1063.96" font-family="Segoe UI" font-size="13.00" fill="#000000">N</text>
</g>
<!-- R_EVAL&#45;&#45;GRADE -->
<g id="edge69" class="edge">
<title>R_EVAL&#45;&#45;GRADE</title>
<path fill="none" stroke="#000000" stroke-width="1.5" d="M70.5,-879.31C89.92,-850.38 126.92,-795.28 146.44,-766.2"/>
<text xml:space="preserve" text-anchor="middle" x="98.68" y="-828.46" font-family="Segoe UI" font-size="13.00" fill="#000000">0..1</text>
</g>
<!-- R_GRADES&#45;&#45;GRADE -->
<g id="edge71" class="edge">
<title>R_GRADES&#45;&#45;GRADE</title>
<path fill="none" stroke="#000000" stroke-width="1.5" d="M262.75,-725.84C242.54,-730 216.66,-735.33 195.83,-739.62"/>
<text xml:space="preserve" text-anchor="middle" x="224.64" y="-738.33" font-family="Segoe UI" font-size="13.00" fill="#000000">N</text>
</g>
</g>
</svg>
